<svg xmlns="http://www.w3.org/2000/svg" fill="none" viewBox="0 0 7731 1657"><path d="M3284.1 456.9c.6 5.7 1.7 10.9 1.7 16v254c0 4.5-.9 9.1-1.4 14-7.6 3.3-15 2-22.1 2-50.7.1-101.3-.1-152 .2-42.4.2-83.8 7.7-122.6 24.9-106.1 47.3-167.6 128.8-181.4 244.4a316.3 316.3 0 0 0 69 241.3c47.9 60.4 110.5 98.1 186.9 109.5 92.1 13.7 173-12.6 241.1-75.7 56.3-52.1 88.7-117.3 101.2-192.8 4-23.8 4.1-47.8 4.1-71.8V23.1c0-6.6.4-13.1.6-19.9 7.4-4.5 14.9-2.9 21.9-3 57.3-.1 114.7-.2 172-.1 27.3 0 54.7-.1 82 0 6.5 0 13 .6 20.6.9.6 4.8 1.3 8.6 1.5 12.4.3 4.7.1 9.3.1 14l.1 999.8c0 40.7-2 81.2-8.6 121.5-32.9 200.5-156.8 373.4-343.9 456.2a596.3 596.3 0 0 1-170.9 46.6 644.2 644.2 0 0 1-131.7 2.5c-224.1-18.6-395.5-147.3-484.1-324.3a609.2 609.2 0 0 1-61.1-207.7c-12.9-117.2 2.3-230.4 53.3-337.1 76.2-159.3 199.2-264.1 370.3-310.7 43.8-11.9 89-18 134.3-18.1 67.3-.2 134.7-.2 202-.1 5.5 0 10.7.5 17.1.9Z" fill="#0D457D"/><path d="M4613.1 1341.8c2.2 24.6 1.7 267.6-.7 284.4a77 77 0 0 1-10.6 2.3c-4 .3-8 .4-12 .2h-180c-57.6.1-114.4-6.7-169.6-23.6-146.5-45-256.8-135.1-332-268.2a588.2 588.2 0 0 1-72.9-232.9c-11.9-116.6 4.1-229.1 54.6-335.1 86-180.6 228-292.4 424.2-331.4 123-24.5 244.5-13.8 360.6 35.8 143.3 61.3 244.6 165.6 307.7 307.5a600.8 600.8 0 0 1 49.1 184.6c2.5 24.5 4.4 49.2 4.4 73.8.4 188 .4 376 .2 563.9 0 7.2-.5 14.4-.7 22.5-4.6 1.1-8.3 2.6-12.1 2.8-8.6.4-17.3.3-26 .3l-234-.1c-7.8 0-16 1.7-23.3-2.7-4.2-7.7-2.6-15.9-2.6-23.8l-.1-357.9c0-68 .1-136-.1-204a334 334 0 0 0-53.2-181.7c-40.8-64.2-96.5-110.7-170.3-131.3-106.5-29.8-200.7-3.8-280.7 71-59.9 55.9-91.5 126.6-99.1 208.2a300 300 0 0 0 26.5 159.7c43 90.5 115.5 144.2 212.5 165.8a335 335 0 0 0 73.4 7.4c48-.1 96 0 144 .1 7.4.2 14.8-1 22.8 2.4Z" fill="#0D457D"/><path d="M1202.8 1626.2c-14 3.1-130.4 4.2-273.7 2.5-6.5-.1-13.3 1.2-20.6-3.3-.7-3.5-1.3-7.1-1.6-10.7-.3-6.7-.2-13.3-.2-20v-541.9a364 364 0 0 0-27-142.4 326.7 326.7 0 0 0-90.5-125.2 284 284 0 0 0-363-8.2c-66.1 51.2-105.4 119.2-119.8 201.3-9.9 56.8-6.9 113.1 14.1 167.3 36.8 94.9 105.9 154.6 203.3 182.2 28.3 8 57.5 11.4 86.9 11.6 49.3.2 98.7 0 148 .1 7.2 0 14.4.4 20.1.6 1 .9 1.9 1.9 2.7 3l.6 1.8c.3 3.3.6 6.6.6 10l-.2 263.9c0 1.9-.7 3.8-1.1 5.8-5.5 5.6-12.5 4-18.9 4-31.3.2-62.7.2-94 .1-42.7-.3-85.4.8-127.9-1.4-138.6-7.2-258.9-58.7-359.2-154.5-90.3-86.4-145.4-192.6-169.6-315.1A593.7 593.7 0 0 1 .6 1014.5c8.6-183 78.2-337.1 220-455.5 79-65.9 170.5-105.5 271.6-123.4a639.5 639.5 0 0 1 175.3-6.5c238.6 24 405 171.3 483.5 351.6a632.6 632.6 0 0 1 52.7 224.4c1.1 22.6 1.8 45.3 1.8 67.9v527.9c0 8.5 1.9 17.4-2.7 25.3Z" fill="#0D457D"/><path d="M7305.1 1339.5c1.3 4.5 2.4 6.3 2.4 8.2l.2 269.9c0 2.6-.8 5.1-1.3 8.2-7.6 4.2-15.7 2.9-23.5 2.9h-172c-14 0-28-.2-42-1.1-177.7-10.6-320.1-87-427.2-229.3a572.6 572.6 0 0 1-106.4-251.6c-23.3-136.9-6.7-268.8 56-392.8 85.5-169.2 222-275 407.8-314.3 122.9-26 244.3-17.3 361.1 30.4 149.9 61.3 254.9 169.1 318.9 317.1a609.3 609.3 0 0 1 48.8 201c1.5 21.3 2.7 42.6 2.8 63.9.2 183.3.2 366.6.1 549.9 0 7.9-.4 15.7-.6 23.3-8 4.8-15.4 3.6-22.6 3.6l-152 .1c-33.3 0-66.6.1-100-.1-7.2 0-14.6 1.1-22-2.8-2.4-7.8-1.5-15.8-1.5-23.7v-289.9c0-90.6.5-181.3-.3-271.9a338.6 338.6 0 0 0-52.4-180c-40.5-64.3-95.9-111-169.4-132.5-97.3-28.5-186.3-8.7-264.7 54.5-65 52.4-102.1 121.7-114.7 204.2-9.3 60.8-3.3 119.9 22.5 175.9 42.5 92.5 115.5 147.5 214.1 169.5a335 335 0 0 0 73.4 7.5h142l22.5-.1Z" fill="#0D457D"/><path d="M1331.1 457.3c3.4-.5 6.6-1.2 9.7-1.3 47.5-1.8 267.4-.6 284.9 1.7.6 3.4 1.7 7.1 1.9 10.9.3 6.6.2 13.3.2 20v643.9c0 30.1 3.1 59.9 11.3 88.9a215.3 215.3 0 0 0 23.8 54.8 176.6 176.6 0 0 0 102.5 78.4c52.2 15.7 105.2 17.9 157.6 1.8 86.3-26.5 137.5-85.1 154.1-173.9 3.2-17.2 3.3-34.4 3.3-51.8V484.8c0-8.6.2-17.1.3-25.7 7.7-4.6 15.2-3 22.3-3l168-.1h86c6.5 0 13 .5 20.7.9.5 5.5 1.3 9.9 1.4 14.4l.1 66v599.9c0 55.7-7.2 110.4-24.1 163.5-56.8 178.3-176.6 290.7-357.2 338.1-73.7 19.3-148.8 21-224.3 13.1a535.1 535.1 0 0 1-152.6-38.2c-117.6-49.5-200.5-133.8-249.1-251.6a544 544 0 0 1-40-176.5c-1.7-28.6-2.6-57.2-2.6-85.9-.2-206-.2-411.9-.1-617.9-.1-8-1.3-16.1 1.9-24.5Z" fill="#0D457D"/><path d="M5979.2 457.1V731c0 3.2-.7 6.4-1.2 10-7.6 3.1-15 1.9-22.2 1.9-62.6.1-125.3-.1-188 .2-42.3.2-83.8 6.5-123.2 22.2-105 41.9-165.5 119.4-182.4 231a301 301 0 0 0 17.7 159.1c36.5 91.4 104.6 147.4 198.8 172.6a364.1 364.1 0 0 0 93 11.6h205c.9 5.3 2.3 9.6 2.4 14 .2 22.7.1 45.3.1 68v181.9c0 7.2-.4 14.4-.6 21.9-8.2 4.7-16.3 3.4-24 3.4-63.3.1-126.6.3-190 0-24.6-.1-49.4-.1-73.9-2.1-142.5-11.5-267.7-62.5-369-165.7-70.8-72-116.3-158.4-141.4-255.8a655 655 0 0 1-19.4-198.2c4.2-82 21.8-161 57.5-235.3 71.5-148.4 187.3-244.7 344.9-291.1a601.9 601.9 0 0 1 167.6-24.4c76.6-.3 153.3-.2 229.9-.1 5.3-.1 10.5.5 18.4 1Z" fill="#0D457D"/><path d="M6105.1 1626.3c-2.3-19-2.3-1150.1-.1-1167.3 5.6-4.8 12.6-2.9 19-3 46-.2 92-.1 138-.1h118c6.5 0 13.1.5 18.8.7 1.4 2.5 2.6 3.6 2.6 4.7l.8 1151.8c0 3.9-.6 7.8-1 12.8-4.1 1-7.8 2.3-11.5 2.7-4.7.3-9.3.4-14 .3h-246c-8 0-16.1 1.1-24.6-2.6Z" fill="#0D457D"/><path d="M6252.2 323.5a158.8 158.8 0 0 1-161.4-162.3c.4-90.6 71-161.6 163-161 85.1.6 160.2 64.4 160.4 161.6a157.9 157.9 0 0 1-162 161.7Z" fill="#0D457D"/></svg>